# xmcd
# 
# Track frame offsets:
#     150
#     15433
#     32673
#     46116
#     62808
#     77284
#     90042
#     107979
#     122080
#     136556
#     151366
#     166488
#     179559
# 
# Disc length: 2589
# 
# Revision: 1
# Processed by: cddbd v1.5.2PL0 Copyright (c) Steve Scherf et al.
# Submitted via: fre:ac v1.0.17
# 
DISCID=900a1b0d
DTITLE=Oscar Peterson - Date With Oscar CD 3
DYEAR=0
DGENRE=Jazz
TTITLE0=These Foolish Things (Remind Me of You)
TTITLE1=Cotton Tail
TTITLE2=Sophisticated Lady
TTITLE3=Just a Sittin' and a Rockin'
TTITLE4=I Got it Bad (and That Ain't Good)
TTITLE5=Do Nothin' Till You Hear from Me
TTITLE6=Don't Get Around Much Anymore
TTITLE7=In a Mellow Tone
TTITLE8=Things Ain't What They Used to Be
TTITLE9=Prelude to a Kiss
TTITLE10=John Hardy's Wife
TTITLE11=Rockin' in Rhythm
TTITLE12=Take the 'A' Train
EXTD=
EXTT0=
EXTT1=
EXTT2=
EXTT3=
EXTT4=
EXTT5=
EXTT6=
EXTT7=
EXTT8=
EXTT9=
EXTT10=
EXTT11=
EXTT12=
PLAYORDER=
